<svg width="30" height="30" viewBox="0 0 30 30" fill="none" xmlns="http://www.w3.org/2000/svg">
<path d="M26.1127 16.25V17.5H25.0252C24.1002 17.5 23.3502 18.25 23.3502 19.1875V19.5625C23.3502 20.5 22.6002 21.25 21.6627 21.25C20.7377 21.25 19.9877 20.5 19.9877 19.5625V19.1875C19.9877 18.25 19.2252 17.5 18.3002 17.5C17.3752 17.5 16.6252 18.25 16.6252 19.1875V19.5625C16.6252 20.5 15.8627 21.25 14.9377 21.25C14.0127 21.25 13.2502 20.5 13.2502 19.5625V19.1875C13.2502 18.25 12.5002 17.5 11.5752 17.5C10.6502 17.5 9.8877 18.25 9.8877 19.1875V19.5625C9.8877 20.5 9.1377 21.25 8.2127 21.25C7.2752 21.25 6.5252 20.5 6.5252 19.5625V19.1625C6.5252 18.2375 5.7877 17.4875 4.8752 17.475H3.8877V16.25C3.8877 14.525 5.1877 13.0625 6.9502 12.6375C7.3002 12.55 7.6627 12.5 8.0502 12.5H21.9502C22.3377 12.5 22.7002 12.55 23.0502 12.6375C24.8127 13.0625 26.1127 14.525 26.1127 16.25Z" fill="#0072DC"/>
<path opacity="0.4" d="M23.0502 8.9625V12.6375C22.7002 12.55 22.3377 12.5 21.9502 12.5H8.0502C7.6627 12.5 7.3002 12.55 6.9502 12.6375V8.9625C6.9502 7.4625 8.3002 6.25 9.9752 6.25H20.0252C21.7002 6.25 23.0502 7.4625 23.0502 8.9625Z" fill="#0072DC"/>
<path d="M10.9375 4.4375V6.2625H9.975C9.65 6.2625 9.35 6.3 9.0625 6.375V4.4375C9.0625 4 9.4875 3.625 10 3.625C10.5125 3.625 10.9375 4 10.9375 4.4375Z" fill="#0072DC"/>
<path d="M20.9375 4.1626V6.3751C20.65 6.2876 20.35 6.2501 20.025 6.2501H19.0625V4.1626C19.0625 3.6501 19.4875 3.2251 20 3.2251C20.5125 3.2251 20.9375 3.6501 20.9375 4.1626Z" fill="#0072DC"/>
<path d="M15.9375 3.525V6.25H14.0625V3.525C14.0625 2.9625 14.4875 2.5 15 2.5C15.5125 2.5 15.9375 2.9625 15.9375 3.525Z" fill="#0072DC"/>
<path opacity="0.4" d="M26.5625 25.6251H26.1125V17.5001H25.025C24.1 17.5001 23.35 18.2501 23.35 19.1876V19.5626C23.35 20.5001 22.6 21.2501 21.6625 21.2501C20.7375 21.2501 19.9875 20.5001 19.9875 19.5626V19.1876C19.9875 18.2501 19.225 17.5001 18.3 17.5001C17.375 17.5001 16.625 18.2501 16.625 19.1876V19.5626C16.625 20.5001 15.8625 21.2501 14.9375 21.2501C14.0125 21.2501 13.25 20.5001 13.25 19.5626V19.1876C13.25 18.2501 12.5 17.5001 11.575 17.5001C10.65 17.5001 9.8875 18.2501 9.8875 19.1876V19.5626C9.8875 20.5001 9.1375 21.2501 8.2125 21.2501C7.275 21.2501 6.525 20.5001 6.525 19.5626V19.1626C6.525 18.2376 5.7875 17.4876 4.875 17.4751H3.8875V25.6251H3.4375C2.925 25.6251 2.5 26.0501 2.5 26.5626C2.5 27.0751 2.925 27.5001 3.4375 27.5001H3.8875H26.1125H26.5625C27.075 27.5001 27.5 27.0751 27.5 26.5626C27.5 26.0501 27.075 25.6251 26.5625 25.6251Z" fill="#0072DC"/>
</svg>
