<svg width="34" height="34" viewBox="0 0 34 34" fill="none" xmlns="http://www.w3.org/2000/svg">
<path opacity="0.4" d="M16.56 30.36C24.1815 30.36 30.36 24.1815 30.36 16.56C30.36 8.93848 24.1815 2.76001 16.56 2.76001C8.93848 2.76001 2.76001 8.93848 2.76001 16.56C2.76001 24.1815 8.93848 30.36 16.56 30.36Z" fill="white"/>
<path d="M20.7 22.0801C19.9272 22.0801 19.3062 21.4591 19.3062 20.7001C19.3062 19.9411 19.9272 19.3201 20.6862 19.3201C21.4452 19.3201 22.0662 19.9411 22.0662 20.7001C22.0662 21.4591 21.459 22.0801 20.7 22.0801Z" fill="white"/>
<path d="M12.4339 13.8C11.6611 13.8 11.04 13.179 11.04 12.42C11.04 11.661 11.661 11.04 12.42 11.04C13.179 11.04 13.8 11.661 13.8 12.42C13.8 13.179 13.1929 13.8 12.4339 13.8Z" fill="white"/>
<path d="M12.42 21.735C12.1578 21.735 11.8956 21.6385 11.6886 21.4315C11.2884 21.0313 11.2884 20.3688 11.6886 19.9686L19.9686 11.6886C20.3688 11.2884 21.0313 11.2884 21.4315 11.6886C21.8317 12.0888 21.8317 12.7513 21.4315 13.1515L13.1515 21.4315C12.9445 21.6385 12.6822 21.735 12.42 21.735Z" fill="white"/>
</svg>
