<svg width="50" height="50" viewBox="0 0 50 50" fill="none" xmlns="http://www.w3.org/2000/svg">
<path opacity="0.1" fill-rule="evenodd" clip-rule="evenodd" d="M25 0C43.6032 0 50 6.40743 50 25.0061C50 43.5926 43.6032 50 25 50C6.409 50 0 43.5926 0 25.0061C0 6.40743 6.409 0 25 0Z" fill="white"/>
<path d="M37.8692 28.9505C37.3083 28.2598 37.4054 27.1456 37.4142 26.3113C37.4495 24.9047 36.0996 23.7162 34.7107 23.9393L33.5474 24.0981C31.4829 21.3934 25.9473 19.0125 18.8503 21.929C19.2839 22.4634 19.638 23.0583 19.9266 23.6872C20.0867 24.035 19.9354 24.4485 19.5901 24.6148L19.5372 24.64C19.183 24.8102 18.7671 24.6514 18.5944 24.2985C17.9 22.8831 16.1216 20.8187 15.0226 21.4879C14.8147 21.6517 14.7101 21.9038 14.7504 22.171C14.8638 22.9335 14.9143 23.691 14.8991 24.4245C14.8248 24.4447 14.7504 24.4787 14.6861 24.5279C13.9022 25.0837 12.9506 25.8752 12.3091 26.6869L11.0361 26.6566C10.3681 26.6238 9.76569 27.215 9.78334 27.8842V30.023C9.78334 30.439 9.9913 30.8246 10.3429 31.0477C10.7147 31.2947 11.5113 31.7762 12.6305 32.2753C14.3925 33.0378 14.9508 33.8117 16.9976 34.578V37.4453C16.9976 38.1183 17.5471 38.6729 18.2252 38.6729H19.5624C21.0244 38.6804 20.6715 36.8365 21.5474 36.132L21.9331 35.7703C24.479 35.9757 24.29 36.1244 27.8151 35.6568C28.1037 36.1484 28.0306 36.8958 28.0381 37.444C28.0381 38.1171 28.5877 38.6716 29.2607 38.6716H30.5286C31.0806 38.6716 31.5634 38.2998 31.7096 37.768C32.3599 35.3998 32.8225 34.0926 33.1287 33.4234C33.1338 33.4134 33.3859 32.3937 34.0601 31.2493C35.1655 29.355 35.2046 27.4065 34.3526 25.4806L34.9122 25.4063C35.4352 25.3269 35.9406 25.7718 35.9267 26.3024C35.8738 27.4896 35.8952 28.8332 36.6603 29.8138C37.2312 30.6053 38.4285 29.7457 37.8689 28.9467L37.8692 28.9505ZM27.6389 25.1619C27.4813 25.5413 27.0377 25.719 26.6684 25.5577C25.2921 24.9729 23.7116 24.9729 22.3303 25.5577C21.4317 25.9194 20.8582 24.5847 21.7506 24.1914C23.4987 23.4491 25.4988 23.4491 27.2469 24.1914C27.6238 24.3502 27.8015 24.7851 27.6376 25.1619H27.6389ZM16.5074 26.8357C17.5358 26.8508 17.5358 28.3821 16.5074 28.401C15.4789 28.3821 15.4802 26.8521 16.5074 26.8357Z" fill="white"/>
<path opacity="0.4" d="M25.8136 18.8609C31.5025 18.6807 31.4951 10.5218 25.8136 10.3396C20.1399 10.5199 20.1341 18.6846 25.8136 18.8609Z" fill="white"/>
</svg>
