<svg width="46" height="46" viewBox="0 0 46 46" fill="none" xmlns="http://www.w3.org/2000/svg">
<path fill-rule="evenodd" clip-rule="evenodd" d="M23 0C40.115 0 46 5.89484 46 23.0056C46 40.1052 40.115 46 23 46C5.89628 46 0 40.1052 0 23.0056C0 5.89484 5.89628 0 23 0Z" fill="#D4F03C" fill-opacity="0.1"/>
<path opacity="0.4" d="M31.2725 24.6548V31.4335C31.2725 33.1798 29.9113 35.0498 28.275 35.5998L23.8888 37.0573C23.1188 37.3185 21.8675 37.3185 21.1113 37.0573L16.725 35.5998C15.075 35.0498 13.7275 33.1798 13.7275 31.4335L13.7413 24.6548L19.8188 28.6148C21.3038 29.591 23.7513 29.591 25.2363 28.6148L31.2725 24.6548Z" fill="#9FE870"/>
<path d="M33.4726 15.8819L25.2363 10.4782C23.7513 9.50191 21.3038 9.50191 19.8188 10.4782L11.5413 15.8819C8.88759 17.6007 8.88759 21.4919 11.5413 23.2244L13.7413 24.6544L19.8188 28.6144C21.3038 29.5907 23.7513 29.5907 25.2363 28.6144L31.2726 24.6544L33.1563 23.4169V27.6244C33.1563 28.1882 33.6238 28.6557 34.1876 28.6557C34.7513 28.6557 35.2188 28.1882 35.2188 27.6244V20.8594C35.7688 19.0857 35.2051 17.0232 33.4726 15.8819Z" fill="#9FE870"/>
</svg>
