<svg width="40" height="40" viewBox="0 0 40 40" fill="none" xmlns="http://www.w3.org/2000/svg">
<path opacity="0.4" d="M12.8377 3.2876H26.5958C32.5955 3.2876 36.1625 6.85454 36.1625 12.8378V26.596C36.1625 32.5792 32.5955 36.1462 26.6123 36.1462H12.8377C6.85441 36.1626 3.28748 32.5957 3.28748 26.6124V12.8378C3.28748 6.85454 6.85441 3.2876 12.8377 3.2876Z" fill="white"/>
<path d="M29.0779 22.1578C28.9464 21.8619 28.7163 21.6154 28.404 21.4839C28.2561 21.4181 28.0917 21.3853 27.9273 21.3853H11.5063C10.8323 21.3853 10.2734 21.9441 10.2734 22.6181C10.2734 23.292 10.8323 23.8509 11.5063 23.8509H24.9686L22.2235 26.5959C21.7468 27.0726 21.7468 27.8616 22.2235 28.3383C22.4701 28.5849 22.7824 28.6999 23.0947 28.6999C23.407 28.6999 23.7193 28.5849 23.9659 28.3383L28.8149 23.4893C28.93 23.3742 29.0122 23.2427 29.0779 23.0948C29.2094 22.7824 29.2094 22.4537 29.0779 22.1578Z" fill="white"/>
<path d="M10.3721 17.2922C10.5036 17.588 10.7337 17.8346 11.046 17.9661C11.1939 18.0319 11.3419 18.0647 11.5063 18.0647H27.9438C28.6177 18.0647 29.1766 17.5059 29.1766 16.8319C29.1766 16.158 28.6177 15.5991 27.9438 15.5991H14.4814L17.2265 12.854C17.7032 12.3774 17.7032 11.5884 17.2265 11.1117C16.7498 10.635 15.9608 10.635 15.4841 11.1117L10.6351 15.9607C10.52 16.0758 10.4378 16.2073 10.3721 16.3552C10.2406 16.6675 10.2406 16.9963 10.3721 17.2922Z" fill="white"/>
</svg>
