<svg width="22" height="22" viewBox="0 0 22 22" fill="none" xmlns="http://www.w3.org/2000/svg">
<path opacity="0.4" d="M14.3443 1.77197H6.91964C3.6946 1.77197 1.77197 3.6946 1.77197 6.91964V14.3355C1.77197 17.5694 3.6946 19.492 6.91964 19.492H14.3355C17.5605 19.492 19.4831 17.5694 19.4831 14.3443V6.91964C19.492 3.6946 17.5694 1.77197 14.3443 1.77197Z" fill="#9FE870"/>
<path d="M9.37377 13.8039C9.19657 13.8039 9.02823 13.733 8.90419 13.609L6.39681 11.1016C6.13987 10.8447 6.13987 10.4194 6.39681 10.1624C6.65375 9.9055 7.07903 9.9055 7.33597 10.1624L9.37377 12.2002L13.9278 7.6462C14.1848 7.38926 14.61 7.38926 14.867 7.6462C15.1239 7.90314 15.1239 8.32842 14.867 8.58536L9.84335 13.609C9.71931 13.733 9.55097 13.8039 9.37377 13.8039Z" fill="#9FE870"/>
</svg>
